<?xml version="1.0" encoding="UTF-8" standalone="no"?>
<!DOCTYPE svg PUBLIC "-//W3C//DTD SVG 1.1//EN" "http://www.w3.org/Graphics/SVG/1.1/DTD/svg11.dtd">
<svg width="100%" height="100%" viewBox="-7 -7 69 68" version="1.1" xmlns="http://www.w3.org/2000/svg" xmlns:xlink="http://www.w3.org/1999/xlink" xml:space="preserve" xmlns:serif="http://www.serif.com/" style="fill-rule:evenodd;clip-rule:evenodd;stroke-linejoin:round;stroke-miterlimit:2;">
    <g id="Highwire-Loading-Icon">
      <animateTransform attributeName="transform"
        attributeType="XML"
        type="rotate"
        from="0 28.5 28"
        to="359 28.5 28"
        dur="4s"
        repeatCount="indefinite" />
        <g id="band-19">
          <animateTransform attributeName="transform"
            attributeType="XML"
            begin="-1s"
            type="rotate"
            calcMode="spline"
            keySplines=".42,0,.58,1;.42,0,1,1;"
            values="0 28.5 28;47 28.5 28;360 28.5 28;"
            dur="1750ms"
            repeatCount="indefinite" />
            <path id="Fill-58" d="M19.896,19.66L17.203,17.499C17.634,16.946 18.105,16.424 18.613,15.929L21.004,18.428C20.608,18.812 20.24,19.228 19.896,19.66" style="fill:rgb(225,225,225);"/>
            <path id="Fill-46" d="M11.589,12.431L8.894,10.271C9.419,9.603 9.99,8.965 10.603,8.362L12.997,10.86C12.491,11.357 12.023,11.879 11.589,12.431" style="fill:rgb(225,225,225);"/>
            <path id="Fill-31" d="M8.513,9.911L5.815,7.752C6.433,6.962 7.104,6.213 7.823,5.504L10.218,7.999C9.608,8.602 9.038,9.24 8.513,9.911" style="fill:rgb(225,225,225);"/>
        </g>
        <g id="band-18">
            <animateTransform attributeName="transform"
                attributeType="XML"
                begin="-1s"
                type="rotate"
                calcMode="spline"
                keySplines=".42,0,.58,1;.42,0,1,1;"
                values="0 28.5 28;74 28.5 28;360 28.5 28;"
                dur="1750ms"
                repeatCount="indefinite" />
            <path id="Fill-71" d="M17.493,24.717L14.138,23.944C14.296,23.259 14.499,22.58 14.745,21.917L17.967,23.123C17.776,23.645 17.614,24.175 17.493,24.717" style="fill:rgb(225,225,225);"/>
            <path id="Fill-57" d="M7.657,22.08L4.305,21.303C4.497,20.466 4.741,19.642 5.038,18.839L8.262,20.052C8.017,20.711 7.814,21.393 7.657,22.08" style="fill:rgb(225,225,225);"/>
            <path id="Fill-43" d="M3.59,21.067L0.237,20.294C0.461,19.312 0.751,18.34 1.102,17.392L4.322,18.603C4.029,19.407 3.779,20.231 3.59,21.067" style="fill:rgb(225,225,225);"/>
        </g>
        <g id="band-17">
            <animateTransform attributeName="transform"
                attributeType="XML"
                begin="-1s"
                type="rotate"
                calcMode="spline"
                keySplines=".42,0,.58,1;.42,0,1,1;"
                values="0 28.5 28;101 28.5 28;360 28.5 28;"
                dur="1750ms"
                repeatCount="indefinite" />
            <path id="Fill-59" d="M17.433,30.119L14.061,30.823C13.921,30.128 13.824,29.423 13.778,28.725L17.205,28.465C17.244,29.024 17.319,29.573 17.433,30.119" style="fill:rgb(225,225,225);"/>
            <path id="Fill-45" d="M8.017,31.693L4.648,32.398C4.481,31.554 4.358,30.702 4.3,29.84L7.733,29.594C7.779,30.297 7.879,30.998 8.017,31.693" style="fill:rgb(225,225,225);"/>
            <path id="Fill-35" d="M3.779,32.468L0.415,33.172C0.21,32.177 0.072,31.178 0,30.167L3.43,29.914C3.489,30.772 3.608,31.626 3.779,32.468" style="fill:rgb(225,225,225);"/>
        </g>
        <g id="band-16">
            <animateTransform attributeName="transform"
                attributeType="XML"
                begin="-1s"
                type="rotate"
                calcMode="spline"
                keySplines=".42,0,.58,1;.42,0,1,1;"
                values="0 28.5 28;126 28.5 28;360 28.5 28;"
                dur="1750ms"
                repeatCount="indefinite" />
            <path id="Fill-70" d="M19.454,34.875L16.642,36.887C16.243,36.301 15.879,35.7 15.556,35.071L18.6,33.454C18.854,33.949 19.139,34.42 19.454,34.875" style="fill:rgb(225,225,225);"/>
            <path id="Fill-56" d="M11.563,39.994L8.752,41.996C8.265,41.289 7.825,40.555 7.434,39.797L10.478,38.181C10.799,38.802 11.162,39.413 11.563,39.994" style="fill:rgb(225,225,225);"/>
            <path id="Fill-42" d="M7.883,42.483L5.075,44.492C4.497,43.659 3.977,42.794 3.517,41.899L6.56,40.279C6.953,41.053 7.393,41.78 7.883,42.483" style="fill:rgb(225,225,225);"/>
        </g>
        <g id="band-15">
            <animateTransform attributeName="transform"
                attributeType="XML"
                begin="-1s"
                type="rotate"
                calcMode="spline"
                keySplines=".42,0,.58,1;.42,0,1,1;"
                values="0 28.5 28;148 28.5 28;360 28.5 28;"
                dur="1750ms"
                repeatCount="indefinite" />
            <path id="Fill-64" d="M22.997,38.312L21.16,41.252C20.567,40.873 20.005,40.45 19.469,39.998L21.675,37.326C22.091,37.683 22.532,38.014 22.997,38.312" style="fill:rgb(225,225,225);"/>
            <path id="Fill-44" d="M18.014,45.423L16.176,48.361C15.456,47.899 14.772,47.385 14.124,46.833L16.328,44.161C16.863,44.611 17.424,45.037 18.014,45.423" style="fill:rgb(225,225,225);"/>
            <path id="Fill-30" d="M15.467,49.359L13.629,52.294C12.781,51.749 11.975,51.144 11.216,50.498L13.415,47.825C14.061,48.377 14.747,48.889 15.467,49.359" style="fill:rgb(225,225,225);"/>
        </g>
        <g id="band-14">
            <animateTransform attributeName="transform"
                attributeType="XML"
                begin="-1s"
                type="rotate"
                calcMode="spline"
                keySplines=".42,0,.58,1;.42,0,1,1;"
                values="0 28.5 28;172 28.5 28;360 28.5 28;"
                dur="1750ms"
                repeatCount="indefinite" />
            <path id="Fill-69" d="M27.36,40.068L26.711,43.484C26.022,43.352 25.344,43.176 24.684,42.947L25.764,39.646C26.285,39.824 26.816,39.962 27.36,40.068" style="fill:rgb(225,225,225);"/>
            <path id="Fill-55" d="M25.656,47.637L25.011,51.05C24.165,50.887 23.346,50.675 22.545,50.402L23.624,47.099C24.288,47.323 24.968,47.498 25.656,47.637" style="fill:rgb(225,225,225);"/>
            <path id="Fill-41" d="M24.629,52.458L23.979,55.881C22.993,55.688 22.025,55.432 21.081,55.105L22.163,51.811C22.966,52.077 23.786,52.298 24.629,52.458" style="fill:rgb(225,225,225);"/>
        </g>
        <g id="band-13">
            <animateTransform attributeName="transform"
                attributeType="XML"
                begin="-1s"
                type="rotate"
                calcMode="spline"
                keySplines=".42,0,.58,1;.42,0,1,1;"
                values="0 28.5 28;191 28.5 28;360 28.5 28;"
                dur="1750ms"
                repeatCount="indefinite" />
            <path id="Fill-62" d="M31.836,40.121L32.417,43.549C31.717,43.667 31.018,43.742 30.328,43.775L30.198,40.294C30.744,40.271 31.289,40.216 31.836,40.121" style="fill:rgb(225,225,225);"/>
            <path id="Fill-50" d="M32.804,47.202L33.383,50.632C32.539,50.778 31.692,50.868 30.847,50.898L30.723,47.417C31.412,47.395 32.106,47.324 32.804,47.202" style="fill:rgb(225,225,225);"/>
            <path id="Fill-33" d="M33.526,52.256L34.102,55.688C33.103,55.86 32.11,55.961 31.12,56L30.99,52.518C31.829,52.489 32.676,52.4 33.526,52.256" style="fill:rgb(225,225,225);"/>
        </g>
        <g id="band-12">
            <animateTransform attributeName="transform"
                attributeType="XML"
                begin="-1s"
                type="rotate"
                calcMode="spline"
                keySplines=".42,0,.58,1;.42,0,1,1;"
                values="0 28.5 28;210 28.5 28;360 28.5 28;"
                dur="1750ms"
                repeatCount="indefinite" />
            <path id="Fill-68" d="M35.859,38.697L37.536,41.736C36.917,42.082 36.28,42.383 35.641,42.64L34.37,39.407C34.874,39.202 35.372,38.968 35.859,38.697" style="fill:rgb(225,225,225);"/>
            <path id="Fill-54" d="M38.818,44.662L40.493,47.704C39.742,48.124 38.969,48.488 38.187,48.801L36.92,45.57C37.561,45.304 38.202,45.011 38.818,44.662" style="fill:rgb(225,225,225);"/>
            <path id="Fill-40" d="M41.329,49.467L43.004,52.509C42.118,53.004 41.21,53.431 40.291,53.8L39.025,50.569C39.8,50.257 40.575,49.894 41.329,49.467" style="fill:rgb(225,225,225);"/>
        </g>
        <g id="band-11">
            <animateTransform attributeName="transform"
                attributeType="XML"
                begin="-1s"
                type="rotate"
                calcMode="spline"
                keySplines=".42,0,.58,1;.42,0,1,1;"
                values="0 28.5 28;228 28.5 28;360 28.5 28;"
                dur="1750ms"
                repeatCount="indefinite" />
            <path id="Fill-60" d="M37.874,37.257C38.294,36.901 38.673,36.525 39.035,36.13L41.575,38.475C41.116,38.982 40.628,39.468 40.093,39.923C40.084,39.93 40.073,39.937 40.059,39.945L37.845,37.282C37.852,37.275 37.866,37.267 37.874,37.257" style="fill:rgb(225,225,225);"/>
            <path id="Fill-48" d="M42.024,41.869C42.557,41.417 43.043,40.931 43.503,40.425L46.045,42.771C45.482,43.386 44.888,43.977 44.237,44.532C44.229,44.537 44.216,44.551 44.209,44.557L41.991,41.899C42.001,41.89 42.01,41.875 42.024,41.869" style="fill:rgb(225,225,225);"/>
            <path id="Fill-34" d="M45.682,46.121C46.324,45.57 46.926,44.981 47.486,44.362L50.022,46.705C49.37,47.431 48.662,48.132 47.9,48.782C47.885,48.79 47.873,48.8 47.863,48.813L45.647,46.147C45.659,46.141 45.668,46.128 45.682,46.121" style="fill:rgb(225,225,225);"/>
        </g>
        <g id="band-10">
            <animateTransform attributeName="transform"
                attributeType="XML"
                begin="-1s"
                type="rotate"
                calcMode="spline"
                keySplines=".42,0,.58,1;.42,0,1,1;"
                values="0 28.5 28;245 28.5 28;360 28.5 28;"
                dur="1750ms"
                repeatCount="indefinite" />
            <path id="Fill-67" d="M41.126,32.931L44.238,34.392C43.947,35.033 43.612,35.652 43.229,36.254L40.328,34.392C40.628,33.92 40.891,33.43 41.126,32.931" style="fill:rgb(225,225,225);"/>
            <path id="Fill-53" d="M46.214,35.343L49.334,36.802C48.98,37.578 48.569,38.335 48.105,39.065L45.199,37.203C45.579,36.598 45.92,35.979 46.214,35.343" style="fill:rgb(225,225,225);"/>
            <path id="Fill-39" d="M51.41,38.02L54.532,39.484C54.113,40.392 53.629,41.279 53.086,42.147L50.182,40.279C50.64,39.55 51.057,38.795 51.41,38.02" style="fill:rgb(225,225,225);"/>
        </g>
        <g id="band-09">
            <animateTransform attributeName="transform"
                attributeType="XML"
                begin="-1s"
                type="rotate"
                calcMode="spline"
                keySplines=".42,0,.58,1;.42,0,1,1;"
                values="0 28.5 28;261 28.5 28;360 28.5 28;"
                dur="1750ms"
                repeatCount="indefinite" />
            <path id="Fill-63" d="M42.14,29.423L45.544,29.93C45.438,30.627 45.294,31.323 45.097,32.008L41.788,31.059C41.944,30.516 42.06,29.97 42.14,29.423" style="fill:rgb(225,225,225);"/>
            <path id="Fill-49" d="M47.222,30.24L50.623,30.742C50.501,31.589 50.323,32.439 50.081,33.27L46.777,32.314C46.972,31.632 47.121,30.937 47.222,30.24" style="fill:rgb(225,225,225);"/>
            <path id="Fill-28" d="M53.071,31.26L56.47,31.772C56.326,32.767 56.118,33.76 55.837,34.742L52.534,33.788C52.765,32.955 52.945,32.111 53.071,31.26" style="fill:rgb(225,225,225);"/>
        </g>
        <g id="band-08">
            <animateTransform attributeName="transform"
                attributeType="XML"
                begin="-1s"
                type="rotate"
                calcMode="spline"
                keySplines=".42,0,.58,1;.42,0,1,1;"
                values="0 28.5 28;276 28.5 28;360 28.5 28;"
                dur="1750ms"
                repeatCount="indefinite" />
            <path id="Fill-66" d="M42.153,25.941L45.558,25.493C45.652,26.198 45.701,26.906 45.695,27.619L42.251,27.609C42.26,27.046 42.223,26.49 42.153,25.941" style="fill:rgb(225,225,225);"/>
            <path id="Fill-52" d="M47.011,25.368L50.422,24.924C50.53,25.773 50.584,26.634 50.579,27.501L47.143,27.494C47.148,26.779 47.103,26.072 47.011,25.368" style="fill:rgb(225,225,225);"/>
            <path id="Fill-38" d="M52.921,24.847L56.333,24.4C56.462,25.402 56.523,26.416 56.52,27.434L53.083,27.425C53.088,26.557 53.033,25.698 52.921,24.847" style="fill:rgb(225,225,225);"/>
        </g>
        <g id="band-07">
            <animateTransform attributeName="transform"
                attributeType="XML"
                begin="-1s"
                type="rotate"
                calcMode="spline"
                keySplines=".42,0,.58,1;.42,0,1,1;"
                values="0 28.5 28;290 28.5 28;360 28.5 28;"
                dur="1750ms"
                repeatCount="indefinite" />
            <path id="Fill-61" d="M41.319,22.805L44.504,21.503C44.765,22.158 44.983,22.829 45.164,23.518L41.833,24.397C41.699,23.851 41.524,23.318 41.319,22.805" style="fill:rgb(225,225,225);"/>
            <path id="Fill-47" d="M45.752,21.024L48.94,19.717C49.256,20.517 49.522,21.336 49.737,22.172L46.407,23.044C46.232,22.358 46.013,21.682 45.752,21.024" style="fill:rgb(225,225,225);"/>
            <path id="Fill-29" d="M51.369,18.888L54.555,17.578C54.933,18.517 55.242,19.479 55.498,20.468L52.167,21.342C51.955,20.503 51.686,19.683 51.369,18.888" style="fill:rgb(225,225,225);"/>
        </g>
        <g id="band-06">
            <animateTransform attributeName="transform"
                attributeType="XML"
                begin="-1s"
                type="rotate"
                calcMode="spline"
                keySplines=".42,0,.58,1;.42,0,1,1;"
                values="0 28.5 28;303 28.5 28;360 28.5 28;"
                dur="1750ms"
                repeatCount="indefinite" />
            <path id="Fill-65" d="M39.876,20.202L42.672,18.178C43.077,18.756 43.442,19.36 43.773,19.986L40.741,21.626C40.482,21.133 40.191,20.654 39.876,20.202" style="fill:rgb(225,225,225);"/>
            <path id="Fill-51" d="M43.713,17.584L46.512,15.561C47.005,16.263 47.449,16.999 47.852,17.76L44.817,19.394C44.488,18.768 44.12,18.165 43.713,17.584" style="fill:rgb(225,225,225);"/>
            <path id="Fill-37" d="M48.777,13.976L51.577,11.952C52.16,12.78 52.68,13.643 53.152,14.54L50.121,16.177C49.718,15.414 49.272,14.677 48.777,13.976" style="fill:rgb(225,225,225);"/>
        </g>
        <g id="band-05">
            <animateTransform attributeName="transform"
                attributeType="XML"
                begin="-1s"
                type="rotate"
                calcMode="spline"
                keySplines=".42,0,.58,1;.42,0,1,1;"
                values="0 28.5 28;315 28.5 28;360 28.5 28;"
                dur="1750ms"
                repeatCount="indefinite" />
            <path id="Fill-26" d="M38.042,18.113L40.336,15.517C40.855,15.991 41.353,16.499 41.806,17.038L39.198,19.309C38.843,18.888 38.457,18.489 38.042,18.113" style="fill:rgb(225,225,225);"/>
            <path id="Fill-24" d="M41.132,14.809L43.421,12.215C44.055,12.79 44.654,13.406 45.207,14.059L42.606,16.327C42.149,15.793 41.654,15.281 41.132,14.809" style="fill:rgb(225,225,225);"/>
            <path id="Fill-22" d="M45.518,10.093L47.805,7.494C48.554,8.17 49.259,8.894 49.91,9.659L47.303,11.936C46.75,11.28 46.153,10.664 45.518,10.093" style="fill:rgb(225,225,225);"/>
        </g>
        <g id="band-04">
            <animateTransform attributeName="transform"
                attributeType="XML"
                begin="-1s"
                type="rotate"
                calcMode="spline"
                keySplines=".42,0,.58,1;.42,0,1,1;"
                values="0 28.5 28;326 28.5 28;360 28.5 28;"
                dur="1750ms"
                repeatCount="indefinite" />
            <path id="Fill-27" d="M35.979,16.6L37.7,13.581C38.311,13.94 38.894,14.336 39.449,14.767L37.351,17.529C36.919,17.192 36.462,16.881 35.979,16.6" style="fill:rgb(225,225,225);"/>
            <path id="Fill-25" d="M38.237,12.834L39.955,9.819C40.694,10.253 41.4,10.734 42.076,11.261L39.984,14.02C39.429,13.588 38.848,13.195 38.237,12.834" style="fill:rgb(225,225,225);"/>
            <path id="Fill-23" d="M41.586,7.028L43.306,4.012C44.171,4.525 45.007,5.087 45.797,5.703L43.708,8.465C43.034,7.941 42.323,7.464 41.586,7.028" style="fill:rgb(225,225,225);"/>
        </g>
        <g id="band-03">
            <animateTransform attributeName="transform"
                attributeType="XML"
                begin="-1s"
                type="rotate"
                calcMode="spline"
                keySplines=".42,0,.58,1;.42,0,1,1;"
                values="0 28.5 28;336 28.5 28;360 28.5 28;"
                dur="1750ms"
                repeatCount="indefinite" />
            <path id="Fill-20" d="M33.816,15.617L34.944,12.329C35.61,12.562 36.257,12.844 36.881,13.162L35.338,16.276C34.847,16.023 34.342,15.8 33.816,15.617" style="fill:rgb(225,225,225);"/>
            <path id="Fill-16" d="M35.274,11.581L36.4,8.292C37.187,8.559 38,8.898 38.757,9.285L37.21,12.398C36.588,12.076 35.938,11.817 35.274,11.581" style="fill:rgb(225,225,225);"/>
            <path id="Fill-14" d="M37.584,5.132L38.716,1.844C39.665,2.181 40.59,2.579 41.48,3.034L39.943,6.146C39.178,5.758 38.397,5.418 37.584,5.132" style="fill:rgb(225,225,225);"/>
        </g>
        <g id="band-02">
            <animateTransform attributeName="transform"
                attributeType="XML"
                begin="-1s"
                type="rotate"
                calcMode="spline"
                keySplines=".42,0,.58,1;.42,0,1,1;"
                values="0 28.5 28;346 28.5 28;360 28.5 28;"
                dur="1750ms"
                repeatCount="indefinite" />
            <path id="Fill-21" d="M31.727,15.066L32.277,11.633C32.972,11.749 33.662,11.906 34.33,12.11L33.34,15.447C32.813,15.283 32.273,15.158 31.727,15.066" style="fill:rgb(225,225,225);"/>
            <path id="Fill-18" d="M32.422,10.972L32.962,7.519C33.805,7.64 34.651,7.819 35.463,8.062L34.481,11.427C33.81,11.226 33.118,11.087 32.422,10.972" style="fill:rgb(225,225,225);"/>
            <path id="Fill-15" d="M33.603,4.077L34.156,0.64C35.151,0.804 36.126,1.032 37.08,1.325L36.087,4.656C35.281,4.407 34.451,4.213 33.603,4.077" style="fill:rgb(225,225,225);"/>
        </g>
        <g id="band-01">
            <animateTransform attributeName="transform"
                attributeType="XML"
                begin="-1s"
                type="rotate"
                calcMode="spline"
                keySplines=".42,0,.58,1;.42,0,1,1;"
                values="0 28.5 28;355 28.5 28;360 28.5 28;"
                dur="1750ms"
                repeatCount="indefinite" />
            <path id="Fill-12" d="M29.815,3.735L29.818,0.256C30.832,0.255 31.832,0.318 32.818,0.453L32.361,3.903C31.526,3.791 30.675,3.737 29.815,3.735" style="fill:rgb(225,225,225);"/>
            <path id="Fill-19" d="M29.664,14.884L29.671,11.405C30.376,11.405 31.081,11.452 31.767,11.541L31.317,14.994C30.775,14.921 30.225,14.884 29.664,14.884" style="fill:rgb(225,225,225);"/>
            <path id="Fill-17" d="M29.675,10.818L29.678,7.319C30.513,7.304 31.385,7.351 32.224,7.465L31.772,10.934C31.083,10.841 30.385,10.818 29.675,10.818" style="fill:rgb(225,225,225);"/>
        </g>
    </g>
</svg>
