<svg class="nav-logotype" width="98" height="20" viewBox="0 0 98 20" xmlns="http://www.w3.org/2000/svg"><title>H i g h w i r e</title><g fill="#1A1918" fill-rule="evenodd"><path d="M12.574 8.382H2.422v7.022H.21V.488H2.42v5.974h10.152V.488h2.213v14.916h-2.213V8.382M17.67.363h2.09v2.295h-2.09V.363zm0 4.09h2.09v10.95h-2.09V4.454zM32.1 6.064h-.04c-.813-1.252-2.465-1.86-4.26-1.86-2.904 0-5.974 1.588-5.974 5.663 0 4.05 3.07 5.642 5.994 5.642 1.42 0 3.07-.337 4.24-2.03h.04v1.59c0 1.795-1.105 3.302-4.07 3.302-1.983 0-3.26-.355-3.636-1.778h-2.09C22.745 19.622 25.46 20 27.82 20c4.492 0 6.37-1.59 6.37-5.515V4.455H32.1v1.61zm0 3.825c0 2.254-1.5 3.865-4.03 3.865-2.548 0-4.03-1.61-4.03-3.866 0-2.256 1.482-3.93 4.03-3.93 2.53 0 4.03 1.674 4.03 3.93zM36.614.363h2.09v5.744h.04c.983-1.528 2.715-2.027 4.283-2.027 2.633 0 4.594 1.128 4.594 3.866v7.458h-2.086V8.36c0-1.605-1.004-2.525-3.24-2.525-1.898 0-3.59 1.107-3.59 3.26v6.31h-2.09V.362M60.26 3.036h-.045l-4.113 12.368H53.66L48.75.488h2.402l3.82 12.118h.044L59.006.488h2.63l4.095 12.118h.043L69.578.488h2.293l-5.054 14.916h-2.422L60.26 3.036M72.997.363h2.09v2.295h-2.09V.363zm0 4.09h2.09v10.95h-2.09V4.454zM77.638 4.454h2.09v2.008h.04c.98-1.735 2.382-2.382 3.76-2.382.52 0 .796.022 1.19.123v2.26c-.522-.127-.918-.21-1.485-.21-2.066 0-3.505 1.213-3.505 3.594v5.557h-2.09V4.454M97.94 10.553v-.267c0-4.535-3.05-6.206-5.935-6.206-4.257 0-6.348 2.696-6.348 5.85 0 3.155 2.09 5.85 6.348 5.85 2.155 0 4.594-1.07 5.644-3.7H95.43c-.708 1.546-2.34 1.947-3.53 1.947-1.86 0-3.864-1.215-4.03-3.474H97.94zM87.934 8.928c.313-1.963 2.046-3.093 3.97-3.093 1.962 0 3.505 1.107 3.822 3.093h-7.792z"/></g>
</svg>
